<?xml version="1.0" encoding="UTF-8" standalone="no"?>
<!-- Created with Inkscape (http://www.inkscape.org/) -->

<svg
   xmlns:dc="http://purl.org/dc/elements/1.1/"
   xmlns:cc="http://creativecommons.org/ns#"
   xmlns:rdf="http://www.w3.org/1999/02/22-rdf-syntax-ns#"
   xmlns:svg="http://www.w3.org/2000/svg"
   xmlns="http://www.w3.org/2000/svg"
   xmlns:sodipodi="http://sodipodi.sourceforge.net/DTD/sodipodi-0.dtd"
   xmlns:inkscape="http://www.inkscape.org/namespaces/inkscape"
   width="43.007561mm"
   height="9.6068449mm"
   viewBox="0 0 152.38899 34.040001"
   id="svg3424"
   version="1.1"
   inkscape:version="0.91 r13725"
   sodipodi:docname="asurion-logo-white.svg">
  <defs
     id="defs3426" />
  <sodipodi:namedview
     id="base"
     pagecolor="#ffffff"
     bordercolor="#666666"
     borderopacity="1.0"
     inkscape:pageopacity="0.0"
     inkscape:pageshadow="2"
     inkscape:zoom="2.8"
     inkscape:cx="28.427878"
     inkscape:cy="35.624934"
     inkscape:document-units="px"
     inkscape:current-layer="layer1"
     showgrid="false"
     fit-margin-top="0"
     fit-margin-left="0"
     fit-margin-right="0"
     fit-margin-bottom="0"
     inkscape:window-width="1280"
     inkscape:window-height="741"
     inkscape:window-x="-8"
     inkscape:window-y="-8"
     inkscape:window-maximized="1" />
  <metadata
     id="metadata3429">
    <rdf:RDF>
      <cc:Work
         rdf:about="">
        <dc:format>image/svg+xml</dc:format>
        <dc:type
           rdf:resource="http://purl.org/dc/dcmitype/StillImage" />
        <dc:title />
      </cc:Work>
    </rdf:RDF>
  </metadata>
  <g
     inkscape:label="Layer 1"
     inkscape:groupmode="layer"
     id="layer1"
     transform="translate(-295.85274,-509.1611)">
    <g
       id="g3341"
       transform="translate(295.85274,509.1611)"
       style="fill:#ffffff">
      <path
         d="m 47.817,8.77 0,7.157 c -0.033,2.363 -0.067,3.444 -0.674,4.558 -0.54,0.878 -1.586,1.79 -3.275,1.79 -1.485,0 -2.701,-0.643 -3.14,-2.127 -0.135,-0.438 -0.135,-1.013 -0.135,-1.689 l 0,-7.386 C 40.545,9.87 39.621,8.894 38.44,8.771 l -1.931,0 0,9.757 c 0,2.533 0,4.118 1.147,5.571 0.607,0.776 1.923,1.958 4.693,1.958 3.105,0 4.761,-1.453 5.468,-2.127 l 0,0.016 0.019,0 c 0,0.922 0.73,1.672 1.645,1.705 l 2.388,0 0,-16.881 -4.052,0 z"
         id="path3343"
         inkscape:connector-curvature="0"
         style="fill:#ffffff" />
      <path
         d="m 73.22,3.77 c 0,1.311 -1.061,2.371 -2.371,2.371 -1.309,0 -2.371,-1.06 -2.371,-2.371 0,-1.31 1.062,-2.371 2.371,-2.371 1.311,-0.001 2.371,1.06 2.371,2.371"
         id="path3345"
         inkscape:connector-curvature="0"
         style="fill:#ffffff" />
      <path
         d="m 11.101,24.337 10e-4,0 c 10e-4,-0.002 0.003,-0.002 0.004,-0.004 0,0.046 0.003,0.108 0.008,0.182 0.079,0.597 0.556,1.068 1.156,1.137 l 3.731,0 c -0.742,-1.013 -0.742,-1.453 -0.742,-2.737 l 0,-8.945 c 0,-1.823 -0.035,-3.41 -2.027,-4.625 -1.483,-0.876 -3.441,-1.08 -5.063,-1.08 -1.081,0 -5.099,0 -6.719,2.937 -0.304,0.551 -0.458,1.017 -0.547,1.469 l 4.032,0.827 c 0.021,-0.32 0.104,-0.652 0.397,-1.012 0.405,-0.54 1.317,-1.08 3.006,-1.08 1.734,0 2.42,0.659 2.692,1.363 0.262,0.977 -0.175,1.268 -0.928,1.54 C 9.288,14.54 8.431,14.721 5.975,15.222 4.354,15.525 1.754,16.066 0.539,18.497 0.202,19.169 0,19.945 0,20.79 c 0,2.902 2.295,5.267 6.11,5.267 2.325,0 4.111,-0.976 4.991,-1.718 l 0,-0.002 z m -4.08,-1.759 c -1.621,0 -2.734,-0.675 -2.734,-1.993 0,-1.788 1.925,-2.127 3.377,-2.328 1.822,-0.304 2.733,-0.608 3.544,-1.013 l 0,1.857 c 0,0.506 0,1.013 -0.236,1.519 -0.438,1.012 -1.889,1.958 -3.951,1.958"
         id="path3347"
         inkscape:connector-curvature="0"
         style="fill:#ffffff" />
      <path
         d="m 84.878,8.264 c -5.031,0 -8.61,3.714 -8.61,8.879 0,5.165 3.511,9.015 8.779,9.015 5.099,0 8.575,-3.747 8.575,-9.015 C 93.589,11.538 89.57,8.264 84.878,8.264 m 0.169,14.179 c -2.431,0 -4.559,-1.924 -4.559,-5.402 0,-3.106 1.824,-5.131 4.355,-5.131 2.837,0 4.458,2.363 4.525,5.165 0.102,2.803 -1.384,5.368 -4.321,5.368"
         id="path3349"
         inkscape:connector-curvature="0"
         style="fill:#ffffff" />
      <path
         d="M 31.931,17.409 C 30.93,16.474 29.968,16.22 26.527,15.275 24.406,14.717 23.192,14.271 23.299,13.06 c 0.075,-0.875 1.024,-1.638 2.94,-1.47 1.686,0.147 2.736,0.779 3.398,1.469 l 2.594,-2.474 C 32.187,10.548 32.146,10.512 32.098,10.477 31.026,9.568 29.248,8.6 26.69,8.375 c -4.606,-0.404 -7.428,1.993 -7.677,4.851 -0.133,1.515 0.421,3.702 4.34,4.995 0.591,0.22 3.304,0.967 3.864,1.152 0.531,0.148 1.739,0.538 1.645,1.615 -0.074,0.84 -1.206,1.881 -3.526,1.677 -1.914,-0.167 -3.224,-0.906 -4.129,-1.909 l -2.954,2.275 c 1.827,1.939 4.504,2.962 7.009,3.181 5.213,0.459 7.841,-2.462 8.072,-5.086 0.124,-1.415 -0.43,-2.818 -1.403,-3.717"
         id="path3351"
         inkscape:connector-curvature="0"
         style="fill:#ffffff" />
      <path
         d="m 60.176,11.167 0,-0.529 C 60.106,9.62 59.282,8.812 58.258,8.77 l -1.999,0 0,16.882 3.917,0 0,-6.247 c 0,-2.802 0.032,-4.524 1.755,-5.841 1.249,-0.945 2.766,-0.979 3.645,-1.013 l 0,-4.152 c -3.78,-0.102 -4.895,1.891 -5.4,2.768"
         id="path3353"
         inkscape:connector-curvature="0"
         style="fill:#ffffff" />
      <path
         d="m 70.766,8.77 c -1.07,0.043 -1.924,0.923 -1.924,2.003 l -0.001,0 0,14.877 4.019,0 0,-16.88 -2.094,0 z"
         id="path3355"
         inkscape:connector-curvature="0"
         style="fill:#ffffff" />
      <path
         d="m 110.603,10.289 c -0.842,-1.147 -2.498,-2.025 -4.422,-2.025 -1.316,0 -2.87,0.438 -3.881,1.181 -0.71,0.473 -1.115,1.013 -1.318,1.317 l 0,-0.002 -0.005,0.013 -0.029,0 c 0,-1.08 -0.856,-1.959 -1.925,-2.003 l -2.126,0 0,16.88 4.086,0 0,-7.326 c 0,-1.249 0,-2.971 0.641,-4.22 0.575,-1.116 1.79,-1.892 3.106,-1.892 1.317,0 2.398,0.776 2.769,2.263 0.135,0.472 0.135,1.317 0.135,2.565 l 0,6.937 c 0.018,0.907 0.739,1.64 1.644,1.673 l 2.373,0 0,-9.925 c -10e-4,-2.194 -10e-4,-4.017 -1.048,-5.436"
         id="path3357"
         inkscape:connector-curvature="0"
         style="fill:#ffffff" />
    </g>
    <path
       d="m 416.94274,537.2861 c -0.69,-0.913 -1.296,-1.897 -1.806,-2.923 l -0.023,-0.048 0.027,-0.049 c 2.151,-3.784 2.834,-6.935 2.436,-11.235 -0.202,-2.172 -0.757,-4.277 -1.655,-6.255 l -0.045,-0.099 0.027,-0.045 c 0.619,-1.02 1.341,-1.983 2.143,-2.861 l 0.139,-0.152 0.037,0.202 c 0.109,0.572 0.286,1.136 0.53,1.672 1.041,2.293 1.688,4.734 1.92,7.252 0.461,4.972 -0.44,8.975 -3.017,13.384 -0.213,0.364 -0.394,0.744 -0.536,1.131 l -0.065,0.175 -0.112,-0.149 z"
       id="path3359"
       inkscape:connector-curvature="0"
       style="fill:#ffffff" />
    <path
       d="m 429.10074,543.2011 c -0.653,0 -1.316,-0.036 -1.969,-0.106 l -0.186,-0.02 0.116,-0.146 c 0.161,-0.2 0.312,-0.413 0.453,-0.63 1.338,-2.09 2.727,-3.458 4.821,-5.255 3.664,-3.142 8.067,-5.239 12.734,-6.061 l 0.053,-0.009 c 0.435,-0.064 0.866,-0.171 1.284,-0.317 l 0.197,-0.07 -0.068,0.201 c -0.401,1.157 -0.924,2.283 -1.551,3.344 l -0.024,0.039 -0.043,0.01 c -3.86,0.804 -7.512,2.609 -10.559,5.223 -1.552,1.331 -2.641,2.361 -3.618,3.688 l -0.027,0.039 -0.045,0.002 c -0.53,0.045 -1.057,0.068 -1.568,0.068 z"
       id="path3361"
       inkscape:connector-curvature="0"
       style="fill:#ffffff" />
    <path
       d="m 445.74174,519.4581 c -0.09,-0.018 -0.183,-0.034 -0.274,-0.049 -6.009,-0.964 -11.631,-4.192 -15.833,-9.091 -0.241,-0.279 -0.493,-0.588 -0.752,-0.915 l -0.149,-0.191 0.209,-0.019 c 0.139,-0.002 0.293,-0.005 0.448,-0.005 1.253,0 2.521,0.133 3.767,0.391 l 0.03,0.007 0.022,0.022 c 2.928,2.964 6.486,5.102 10.294,6.184 l 0.028,0.008 0.021,0.025 c 0.899,1.076 1.673,2.249 2.3,3.486 l 0.095,0.189 -0.206,-0.042 z"
       id="path3363"
       inkscape:connector-curvature="0"
       style="fill:#ffffff" />
    <path
       d="m 421.42974,543.0021 c -0.319,0 -0.637,-0.084 -0.914,-0.247 l -0.107,-0.072 c -0.031,-0.021 -0.056,-0.038 -0.077,-0.055 -0.774,-0.574 -0.975,-1.647 -0.461,-2.448 0.075,-0.12 0.153,-0.235 0.23,-0.351 l 0.087,-0.132 0.011,-0.025 c 3.298,-5.857 4.445,-11.224 3.822,-17.922 -0.321,-3.478 -1.216,-6.851 -2.654,-10.021 -0.413,-0.911 -0.008,-1.992 0.905,-2.405 0.235,-0.108 0.486,-0.163 0.743,-0.163 0.312,0 0.622,0.081 0.896,0.235 l 0.029,0.017 c 0.03,0.019 0.06,0.036 0.09,0.058 0.031,0.02 0.052,0.034 0.074,0.049 l 0.034,0.028 c 0.137,0.105 0.244,0.208 0.334,0.323 0.334,0.424 0.67,0.832 0.999,1.215 5.602,6.531 13.146,10.844 21.244,12.143 l 0.081,0.019 c 0.061,0.013 0.116,0.027 0.168,0.043 0.754,0.234 1.278,0.946 1.278,1.731 0,0.06 -0.003,0.11 -0.007,0.161 l -0.014,0.125 -0.014,0.07 c -0.012,0.048 -0.02,0.093 -0.032,0.135 l -0.01,0.031 c -0.011,0.042 -0.024,0.083 -0.04,0.123 -0.028,0.068 -0.045,0.11 -0.063,0.148 l -0.012,0.023 c -0.022,0.042 -0.043,0.081 -0.063,0.118 l -0.02,0.028 c -0.023,0.038 -0.046,0.071 -0.066,0.104 l -0.029,0.035 c -0.02,0.028 -0.043,0.057 -0.068,0.087 -0.007,0.007 -0.081,0.088 -0.103,0.109 -0.008,0.008 -0.093,0.085 -0.114,0.103 -0.028,0.024 -0.053,0.042 -0.078,0.061 l -0.028,0.021 c -0.049,0.036 -0.082,0.055 -0.112,0.075 l -0.031,0.017 c -0.04,0.023 -0.078,0.042 -0.118,0.062 l -0.026,0.013 c -0.036,0.017 -0.079,0.036 -0.123,0.052 -0.061,0.023 -0.105,0.037 -0.151,0.049 -0.06,0.018 -0.106,0.028 -0.151,0.036 l -0.086,0.017 c -6.331,1.085 -12.293,3.9 -17.234,8.138 -2.48,2.128 -4.374,3.979 -6.152,6.62 l -0.025,0.038 -0.118,0.214 c -0.049,0.088 -0.097,0.177 -0.149,0.266 -0.328,0.556 -0.932,0.901 -1.575,0.901 z m 6.069,-22.835 c 0.063,0.494 0.108,0.89 0.143,1.247 0.279,3.012 0.219,5.787 -0.181,8.485 l -0.327,2.187 1.758,-1.34 c 2.588,-1.971 5.395,-3.613 8.341,-4.883 l 1.913,-0.823 -1.913,-0.827 c -2.925,-1.264 -5.718,-2.903 -8.297,-4.875 l -1.713,-1.31 0.276,2.139 z"
       id="path3365"
       inkscape:connector-curvature="0"
       style="fill:#ffffff" />
  </g>
</svg>
