<?xml version="1.0" encoding="UTF-8" standalone="no"?>
<!-- Created with Inkscape (http://www.inkscape.org/) -->

<svg
   xmlns:dc="http://purl.org/dc/elements/1.1/"
   xmlns:cc="http://creativecommons.org/ns#"
   xmlns:rdf="http://www.w3.org/1999/02/22-rdf-syntax-ns#"
   xmlns:svg="http://www.w3.org/2000/svg"
   xmlns="http://www.w3.org/2000/svg"
   xmlns:sodipodi="http://sodipodi.sourceforge.net/DTD/sodipodi-0.dtd"
   xmlns:inkscape="http://www.inkscape.org/namespaces/inkscape"
   width="413.28366"
   height="413.28366"
   viewBox="0 0 413.28367 413.28367"
   id="svg53623"
   version="1.1"
   inkscape:version="0.91 r13725"
   sodipodi:docname="teamcast-icon.svg"
   inkscape:export-filename="C:\Users\carloangelo.cordoviz\Desktop\TEAMCAST-IMAGES\logos\teamcast-icon-32.png"
   inkscape:export-xdpi="7.1399999"
   inkscape:export-ydpi="7.1399999">
  <defs
     id="defs53625" />
  <sodipodi:namedview
     id="base"
     pagecolor="#ffffff"
     bordercolor="#666666"
     borderopacity="1.0"
     inkscape:pageopacity="0"
     inkscape:pageshadow="2"
     inkscape:zoom="0.78981348"
     inkscape:cx="166.41216"
     inkscape:cy="-33.723503"
     inkscape:document-units="px"
     inkscape:current-layer="layer1"
     showgrid="false"
     inkscape:window-width="1280"
     inkscape:window-height="741"
     inkscape:window-x="-8"
     inkscape:window-y="-8"
     inkscape:window-maximized="1"
     fit-margin-top="5"
     fit-margin-left="5"
     fit-margin-right="5"
     fit-margin-bottom="5"
     units="px" />
  <metadata
     id="metadata53628">
    <rdf:RDF>
      <cc:Work
         rdf:about="">
        <dc:format>image/svg+xml</dc:format>
        <dc:type
           rdf:resource="http://purl.org/dc/dcmitype/StillImage" />
        <dc:title />
      </cc:Work>
    </rdf:RDF>
  </metadata>
  <g
     inkscape:label="Layer 1"
     inkscape:groupmode="layer"
     id="layer1"
     transform="translate(-165.40541,-319.53926)">
    <circle
       style="fill:#000080;fill-opacity:1;stroke:none;stroke-width:5;stroke-linecap:round;stroke-linejoin:round;stroke-miterlimit:4;stroke-dasharray:none;stroke-opacity:1"
       id="path39607"
       cx="372.04724"
       cy="526.18109"
       r="201.64183" />
    <path
       inkscape:connector-curvature="0"
       style="fill:#ffffff;fill-opacity:1;stroke:none;stroke-width:5;stroke-linecap:round;stroke-linejoin:round;stroke-miterlimit:4;stroke-dasharray:none;stroke-opacity:1"
       d="m 270.12025,401.08614 a 39.064491,39.064491 0 0 0 -39.0664,39.0625 39.064491,39.064491 0 0 0 39.0664,39.0664 39.064491,39.064491 0 0 0 9.27735,-1.16016 c 1.87598,1.20682 3.77067,2.38763 5.69726,3.55665 6.2968,3.81974 23.07754,8.67664 15.46485,1.05468 -5.00486,-5.01159 -6.34925,-8.96438 -6.44141,-11.70898 a 39.064491,39.064491 0 0 0 15.06445,-30.80859 39.064491,39.064491 0 0 0 -39.0625,-39.0625 z m 18.42188,20.32812 c 1.40306,0 2.34133,0.48987 2.81445,1.46875 0.47313,0.96257 0.71094,2.35635 0.71094,4.18359 0,1.07677 -0.0577,2.1699 -0.17188,3.2793 l -1.05273,12.06641 c -0.1142,1.43569 -0.35913,2.53594 -0.73438,3.30273 -0.37523,0.76679 -0.99469,1.15039 -1.85937,1.15039 -0.88099,0 -1.49333,-0.3674 -1.83594,-1.10156 -0.34261,-0.75048 -0.58754,-1.88312 -0.73437,-3.40039 l -0.78321,-11.72266 c -0.14683,-2.28406 -0.21875,-3.92472 -0.21875,-4.91992 0,-1.35412 0.34925,-2.40577 1.05079,-3.15625 0.71784,-0.76679 1.65611,-1.15039 2.81445,-1.15039 z m -35.36133,2.5 c 0.32433,0 0.64681,0.0841 0.93164,0.24414 l 0.0293,0.0176 c 0.0312,0.0197 0.0625,0.0376 0.0937,0.0606 0.0322,0.0208 0.0534,0.0352 0.0762,0.0508 l 0.0352,0.0293 c 0.14241,0.10915 0.2541,0.2164 0.34766,0.33594 0.34719,0.44075 0.69706,0.86555 1.03906,1.26367 5.82328,6.78898 13.66416,11.27079 22.08204,12.6211 l 0.0859,0.0215 c 0.0634,0.0135 0.11978,0.0264 0.17384,0.043 0.78377,0.24325 1.32812,0.98477 1.32812,1.80078 0,0.0624 -0.002,0.113 -0.006,0.16602 l -0.0156,0.13086 -0.0137,0.0723 c -0.0125,0.0499 -0.0207,0.097 -0.0332,0.14063 l -0.0117,0.0332 c -0.0114,0.0437 -0.0243,0.0854 -0.041,0.12695 -0.0291,0.0707 -0.0457,0.1148 -0.0644,0.1543 l -0.0137,0.0234 c -0.0229,0.0437 -0.0437,0.0846 -0.0644,0.12304 l -0.0215,0.0293 c -0.0239,0.0395 -0.0476,0.0731 -0.0684,0.10742 l -0.0312,0.0371 c -0.0208,0.0291 -0.0443,0.0587 -0.0703,0.0898 -0.007,0.007 -0.0845,0.0915 -0.10742,0.11328 -0.008,0.008 -0.0954,0.0888 -0.11719,0.10742 -0.0291,0.0249 -0.056,0.0428 -0.082,0.0625 l -0.0293,0.0215 c -0.0509,0.0374 -0.084,0.0573 -0.11523,0.0781 l -0.0332,0.0176 c -0.0416,0.0239 -0.0815,0.0437 -0.12304,0.0644 l -0.0254,0.0137 c -0.0374,0.0177 -0.0832,0.038 -0.12892,0.0547 -0.0634,0.0239 -0.10843,0.0384 -0.15625,0.0508 -0.0624,0.0187 -0.11143,0.0288 -0.1582,0.0371 l -0.0879,0.0176 c -6.58107,1.12785 -12.77984,4.05358 -17.91601,8.45898 -2.57796,2.21205 -4.54631,4.1375 -6.39454,6.88281 l -0.0254,0.0391 -0.12304,0.22265 c -0.0509,0.0915 -0.10025,0.18483 -0.1543,0.27735 -0.34096,0.57796 -0.97027,0.93554 -1.63867,0.93554 -0.3316,0 -0.66127,-0.0864 -0.94922,-0.25585 l -0.11133,-0.0762 c -0.0322,-0.0218 -0.0583,-0.0389 -0.0801,-0.0566 -0.80458,-0.59667 -1.01283,-1.71228 -0.47852,-2.54492 0.078,-0.12474 0.15825,-0.24464 0.23829,-0.36523 l 0.0898,-0.13672 0.0117,-0.0254 c 3.42827,-6.08835 4.62026,-11.66829 3.97265,-18.63086 -0.33368,-3.61538 -1.26301,-7.1208 -2.75781,-10.41602 -0.42932,-0.94698 -0.009,-2.07069 0.93945,-2.5 0.24428,-0.11227 0.50629,-0.16992 0.77344,-0.16992 z m 6.62695,0.0293 c 1.30249,0 2.62081,0.13806 3.91602,0.40625 l 0.0312,0.006 0.0234,0.0234 c 3.04365,3.08108 6.74275,5.303 10.70117,6.42774 l 0.0273,0.008 0.0234,0.0273 c 0.93451,1.1185 1.73887,2.33719 2.39062,3.62305 l 0.0977,0.19727 -0.21289,-0.0449 c -0.0935,-0.0187 -0.19057,-0.0352 -0.28516,-0.0508 -6.24636,-1.00207 -12.091,-4.35669 -16.45898,-9.44922 -0.25052,-0.29001 -0.51202,-0.61126 -0.78125,-0.95117 l -0.1543,-0.19922 0.2168,-0.0195 c 0.14449,-0.002 0.30372,-0.004 0.46485,-0.004 z m -11.64648,4.60547 0.0371,0.20898 c 0.11331,0.59459 0.29909,1.18111 0.55273,1.73828 1.08211,2.38357 1.75297,4.92159 1.99414,7.53906 0.4792,5.16839 -0.45596,9.32896 -3.13476,13.91211 -0.22141,0.37838 -0.41099,0.77349 -0.5586,1.17578 l -0.0664,0.18164 -0.11718,-0.15429 c -0.71725,-0.94906 -1.34681,-1.97254 -1.87696,-3.03906 l -0.0234,-0.0488 0.0273,-0.0508 c 2.23597,-3.93346 2.94693,-7.20984 2.53321,-11.67969 -0.20998,-2.25779 -0.78724,-4.44582 -1.72071,-6.50195 l -0.0469,-0.10352 0.0273,-0.0469 c 0.64345,-1.06028 1.39484,-2.05997 2.22852,-2.97265 l 0.14453,-0.1582 z m 9.39258,4.58203 0.28711,2.22461 c 0.0655,0.51352 0.11205,0.92382 0.14843,1.29492 0.29002,3.13097 0.2283,6.01574 -0.1875,8.82031 l -0.33984,2.27344 1.82813,-1.39258 c 2.69022,-2.04885 5.60754,-3.75601 8.66992,-5.07617 l 1.98828,-0.85547 -1.98828,-0.85938 c -3.04055,-1.31393 -5.94413,-3.01651 -8.625,-5.0664 l -1.78125,-1.36328 z m 20.14648,13.05664 -0.0703,0.20898 c -0.41684,1.20271 -0.95956,2.3717 -1.61133,3.47461 l -0.0254,0.041 -0.0449,0.01 c -4.01247,0.83576 -7.8092,2.71243 -10.97656,5.42969 -1.6133,1.38357 -2.74418,2.45457 -3.75977,3.83398 l -0.0293,0.041 -0.0469,0.002 c -0.55094,0.0468 -1.09772,0.0703 -1.62891,0.0703 -0.67878,0 -1.36808,-0.0366 -2.04687,-0.10938 l -0.19336,-0.0215 0.12109,-0.15235 c 0.16736,-0.2079 0.32414,-0.42872 0.47071,-0.65429 1.39086,-2.17256 2.83501,-3.59491 5.01172,-5.46289 3.80872,-3.26613 8.38497,-5.44632 13.23632,-6.30079 l 0.0547,-0.008 c 0.45218,-0.0665 0.90143,-0.17831 1.33594,-0.33008 l 0.20312,-0.0723 z m 10.64649,4.96094 c 1.02782,0 1.90129,0.35832 2.61914,1.07617 0.73416,0.70153 1.10156,1.5588 1.10156,2.57031 0,1.14203 -0.3674,2.03882 -1.10156,2.69141 -0.73416,0.65258 -1.59143,0.97851 -2.57032,0.97851 -0.99519,0 -1.86866,-0.3188 -2.61914,-0.95508 -0.73416,-0.65258 -1.09961,-1.5565 -1.09961,-2.71484 0,-1.01151 0.34925,-1.86878 1.05079,-2.57031 0.71784,-0.71785 1.59131,-1.07617 2.61914,-1.07617 z"
       id="path44286" />
    <g
       id="g12929">
      <path
         d="m 502.12416,444.83252 -12.57107,12.1131 c -2.77827,2.67654 -2.85973,7.09731 -0.18224,9.87273 2.67654,2.77827 7.0973,2.85973 9.87273,0.18224 l 12.57107,-12.11311 c 2.77827,-2.67654 2.85973,-7.0973 0.18224,-9.87273 -2.67464,-2.77447 -7.09541,-2.85592 -9.87273,-0.18223 z"
         id="path49023"
         inkscape:connector-curvature="0"
         style="fill:#ffffff" />
      <path
         d="m 527.55741,485.56401 -16.81752,4.67767 c -3.7154,1.03414 -5.88988,4.88401 -4.85575,8.59941 1.03414,3.7154 4.88401,5.88988 8.59941,4.85575 l 16.81751,-4.67767 c 3.7154,-1.03414 5.88989,-4.88401 4.85575,-8.59941 -1.03413,-3.71539 -4.884,-5.88988 -8.5994,-4.85575 z"
         id="path49025"
         inkscape:connector-curvature="0"
         style="fill:#ffffff" />
      <path
         d="m 530.56041,533.48867 -17.0202,-3.88446 c -3.75855,-0.85949 -7.50407,1.49328 -8.36072,5.25278 -0.85665,3.75951 1.49327,7.50407 5.25278,8.36072 l 17.02019,3.88446 c 3.75856,0.85949 7.50408,-1.49327 8.36073,-5.25278 0.85664,-3.7595 -1.49423,-7.50123 -5.25278,-8.36072 z"
         id="path49027"
         inkscape:connector-curvature="0"
         style="fill:#ffffff" />
    </g>
    <g
       id="g12923">
      <path
         transform="translate(165.40541,319.53926)"
         id="path30539"
         d="M 228.63281 68.265625 C 209.0392 69.073275 197.68495 82.076323 192.45117 91.658203 C 161.61622 149.89414 157.7077 169.50912 114.51758 190.52344 C 93.097886 200.94527 84.761836 208.47642 80.353516 221.38477 C 71.543456 247.18211 86.449215 275.74057 112.46094 282.9043 C 140.48258 290.99018 145.93208 282.47177 186.8125 287.95312 C 156.99358 257.48251 164.08789 205.97461 164.08789 205.97461 C 166.09127 258.98372 204.42216 286.85799 215.00977 293.57227 C 224.04698 296.74756 237.96817 302.70176 245.18555 306.73633 C 262.05291 316.16531 267.70993 318.59812 274.71484 319.42773 C 295.6246 321.90419 313.81465 306.24559 320.70898 274.86914 C 327.73195 242.90727 324.2906 216.0351 319.97266 195.49219 C 310.53591 150.59615 290.83653 110.76844 266.62891 87.640625 C 253.2483 74.856865 240.79713 68.478445 228.63281 68.265625 z M 233.54492 89.060547 C 240.92129 89.229235 249.92676 94.346684 259.73633 104.15625 C 281.04738 125.4673 299.52082 165.41012 306.23828 204.70312 C 309.67373 224.79833 309.99519 253.63729 306.94531 268.09961 C 304.13492 281.42629 297.30521 295.01767 291.70312 298.43359 C 286.02858 301.89372 280.27882 301.78026 273.21094 298.06641 C 249.09382 285.39393 225.6848 247.09114 214.25391 201.59961 C 202.8095 156.05427 206.82438 108.39956 223.41211 92.904297 C 226.26356 90.240647 229.68111 88.972186 233.54492 89.060547 z M 112.98242 227.5332 C 114.50861 227.60873 115.85227 228.37501 116.43945 229.67188 C 117.33418 231.64807 116.13227 234.10565 113.75586 235.16211 L 103 239.94336 C 100.62362 240.99984 97.970942 240.25352 97.076172 238.27734 C 96.181442 236.30114 97.383356 233.84357 99.759766 232.78711 L 110.51758 228.00586 C 111.11168 227.74174 111.72161 227.59071 112.31836 227.54297 C 112.54214 227.52507 112.7644 227.52241 112.98242 227.5332 z M 116.44727 241.89453 C 117.97345 241.97006 119.3171 242.73635 119.9043 244.0332 C 120.79903 246.0094 119.59711 248.46698 117.2207 249.52344 L 106.46289 254.30469 C 104.08651 255.36117 101.43579 254.61485 100.54102 252.63867 C 99.646282 250.66247 100.8482 248.2049 103.22461 247.14844 L 113.98047 242.36719 C 114.57457 242.10307 115.18646 241.95204 115.7832 241.9043 C 116.00698 241.88639 116.22924 241.88374 116.44727 241.89453 z "
         style="fill:#40b4e5;fill-opacity:1" />
      <path
         sodipodi:nodetypes="cscc"
         id="path30533"
         d="m 388.28257,475.97843 c 22.56545,1.18503 39.65054,18.94236 45.98154,35.98329 8.61165,23.17968 -0.79808,48.35963 -17.39106,57.25447 -14.58328,-19.83082 -24.99684,-60.8682 -28.59048,-93.23776 z"
         style="fill:#82bc00;fill-opacity:1"
         inkscape:connector-curvature="0" />
      <path
         sodipodi:nodetypes="cssscc"
         style="fill:#82bc00;fill-opacity:1"
         id="path39652"
         d="m 304.5838,619.68044 c 0,0 17.74899,9.14383 24.53669,16.21824 7.40604,7.71886 9.71379,21.44267 16.57354,27.48069 5.35443,4.71303 15.42397,2.19621 18.83981,-1.13934 10.35641,-10.11296 -16.38714,-27.1912 -1.24849,-36.33955 -2.47218,-5.78239 -21.53693,-13.0583 -58.70155,-6.22004 z"
         inkscape:connector-curvature="0" />
      <path
         sodipodi:nodetypes="cscc"
         id="path30533-2"
         d="m 248.96486,594.58382 c -10.14593,3.00732 -18.49902,-9.66064 -20.90666,-17.99165 -3.43265,-11.87777 0.20958,-26.83231 8.69553,-29.95348 -6.53927,26.39883 7.19341,41.80197 12.21113,47.94513 z"
         style="fill:#82bc00;fill-opacity:1"
         inkscape:connector-curvature="0" />
    </g>
  </g>
</svg>
