<?xml version="1.0" encoding="UTF-8" standalone="no"?>
<svg
   xmlns:dc="http://purl.org/dc/elements/1.1/"
   xmlns:cc="http://creativecommons.org/ns#"
   xmlns:rdf="http://www.w3.org/1999/02/22-rdf-syntax-ns#"
   xmlns:svg="http://www.w3.org/2000/svg"
   xmlns="http://www.w3.org/2000/svg"
   xmlns:sodipodi="http://sodipodi.sourceforge.net/DTD/sodipodi-0.dtd"
   xmlns:inkscape="http://www.inkscape.org/namespaces/inkscape"
   version="1.1"
   x="0px"
   y="0px"
   viewBox="0 0 31.472656 99.999542"
   enable-background="new 0 0 100 100"
   xml:space="preserve"
   id="svg8068"
   inkscape:version="0.91 r13725"
   sodipodi:docname="team-jackd-logo.svg"
   width="31.472656"
   height="99.999542"><metadata
     id="metadata8076"><rdf:RDF><cc:Work
         rdf:about=""><dc:format>image/svg+xml</dc:format><dc:type
           rdf:resource="http://purl.org/dc/dcmitype/StillImage" /><dc:title></dc:title></cc:Work></rdf:RDF></metadata><defs
     id="defs8074" /><sodipodi:namedview
     pagecolor="#ffffff"
     bordercolor="#666666"
     borderopacity="1"
     objecttolerance="10"
     gridtolerance="10"
     guidetolerance="10"
     inkscape:pageopacity="0"
     inkscape:pageshadow="2"
     inkscape:window-width="1280"
     inkscape:window-height="741"
     id="namedview8072"
     showgrid="false"
     fit-margin-top="0"
     fit-margin-left="0"
     fit-margin-right="0"
     fit-margin-bottom="0"
     inkscape:zoom="2.76"
     inkscape:cx="-9.9719752"
     inkscape:cy="31.656257"
     inkscape:window-x="-8"
     inkscape:window-y="-8"
     inkscape:window-maximized="1"
     inkscape:current-layer="svg8068" /><path
     style="fill:#ffffff"
     d="M 15.273438 0.00390625 C 13.639313 0.00990625 12.15625 0.021484375 12.15625 0.021484375 C 12.15625 0.021484375 11.287859 0.16612497 10.130859 1.203125 L 10.082031 5.4492188 L 10.275391 5.7851562 L 10.082031 6.1230469 C 10.082031 6.1230469 9.8897969 9.7906095 9.8417969 10.224609 C 9.7937969 10.658609 10.322266 10.949219 10.322266 10.949219 C 10.322266 10.949219 10.418736 13.070875 10.177734 14.421875 C 9.9357344 15.772875 9.0676406 18.811234 8.6816406 20.740234 C 8.2956406 22.669234 8.7303614 28.314109 9.0683594 29.037109 C 9.4063594 29.760109 9.2617188 30.146484 9.2617188 30.146484 C 9.2617188 30.146484 8.8253438 30.436563 8.7773438 30.726562 C 8.7293437 31.015563 9.0683594 31.642578 9.0683594 31.642578 C 7.2353594 35.260578 1.2059531 37.721891 0.62695312 37.962891 C 0.047955125 38.203891 0 38.660156 0 38.660156 L 0 44.365234 L 0.11914062 44.691406 L 0.578125 45.197266 L 0.578125 45.289062 L 30.894531 45.289062 L 30.894531 45.197266 L 31.351562 44.691406 L 31.472656 44.365234 L 31.472656 38.660156 C 31.472656 38.660156 31.424706 38.203891 30.845703 37.962891 C 30.266703 37.721891 24.235344 35.260578 22.402344 31.642578 C 22.402344 31.642578 22.741359 31.016562 22.693359 30.726562 C 22.644359 30.436563 22.210938 30.146484 22.210938 30.146484 C 22.210938 30.146484 22.064344 29.760109 22.402344 29.037109 C 22.740344 28.313109 23.175063 22.669234 22.789062 20.740234 C 22.403063 18.810234 21.534922 15.771875 21.294922 14.421875 C 21.052922 13.070875 21.148438 10.949219 21.148438 10.949219 C 21.148438 10.949219 21.679814 10.658609 21.632812 10.224609 C 21.582812 9.7906095 21.685547 6.1230469 21.685547 6.1230469 L 21.492188 5.7851562 L 21.685547 5.4492188 L 21.636719 1.203125 C 21.636719 1.203125 20.502875 0.070484365 19.296875 0.021484375 C 18.693375 -0.002515625 16.907561 -0.00209375 15.273438 0.00390625 z M 0.578125 47.28125 L 0.578125 88.314453 L 30.894531 88.314453 L 30.894531 47.28125 L 0.578125 47.28125 z M 18.748047 55.724609 C 18.895703 55.710479 19.048469 55.726208 19.199219 55.773438 C 19.802219 55.962438 20.135672 56.602078 19.951172 57.205078 L 14.236328 75.492188 C 14.083328 75.982686 13.457187 76.419641 12.804688 76.244141 C 12.192687 76.077641 11.865687 75.4155 12.054688 74.8125 L 17.769531 56.525391 C 17.911281 56.069766 18.305078 55.767008 18.748047 55.724609 z M 10.287109 60.3125 C 10.579609 60.3125 10.872953 60.423734 11.095703 60.646484 C 11.541203 61.096484 11.541203 61.817578 11.095703 62.267578 L 7.328125 66.033203 L 11.089844 69.794922 C 11.535344 70.240422 11.535344 70.964656 11.089844 71.410156 C 10.738844 71.761156 9.8706094 71.806156 9.4746094 71.410156 L 4.9023438 66.833984 C 4.4568437 66.388484 4.4568437 65.66425 4.9023438 65.21875 L 9.4804688 60.646484 C 9.7032187 60.423734 9.9946094 60.3125 10.287109 60.3125 z M 21.716797 60.3125 C 22.009297 60.3125 22.302641 60.423734 22.525391 60.646484 L 27.097656 65.21875 C 27.543156 65.66875 27.543744 66.388484 27.09375 66.833984 L 22.521484 71.40625 C 22.125484 71.80225 21.25725 71.75725 20.90625 71.40625 C 20.46075 70.96075 20.46075 70.236516 20.90625 69.791016 L 24.671875 66.023438 L 20.910156 62.261719 C 20.464656 61.816219 20.464656 61.091984 20.910156 60.646484 C 21.132906 60.423734 21.424297 60.3125 21.716797 60.3125 z M 0.578125 90.306641 L 0.578125 90.496094 C 0.289125 90.932094 0 91.800781 0 91.800781 L 0.037109375 92.28125 C 0.037109375 92.28125 -0.09646875 94.403688 0.14453125 96.429688 C 0.38553125 98.454688 1.640625 99.515625 1.640625 99.515625 L 3.7636719 100 L 27.710938 100 L 29.832031 99.517578 C 29.832031 99.517578 31.087125 98.456641 31.328125 96.431641 C 31.569125 94.405641 31.435547 92.283203 31.435547 92.283203 L 31.472656 91.800781 C 31.472656 91.800781 31.183531 90.932094 30.894531 90.496094 L 30.894531 90.306641 L 0.578125 90.306641 z "
     id="path8070" /></svg>